<svg width="316" height="476" viewBox="0 0 316 476" fill="none" xmlns="http://www.w3.org/2000/svg">
<path d="M75 309C75 275.863 101.863 249 135 249H165C198.137 249 225 275.863 225 309V334C225 364.376 200.376 389 170 389H130C99.6243 389 75 364.376 75 334V309Z" fill="black"/>
<path fill-rule="evenodd" clip-rule="evenodd" d="M223.402 11.4181C205.204 3.87987 185.698 0 166 0L166 49C166 49 166 49 166 49C216.258 49 257 93.7715 257 149C257 204.228 216.258 249 166 249C166 249 166 249 166 249L166 300C185.698 300 205.203 296.12 223.402 288.582C241.601 281.044 258.137 269.995 272.066 256.066C285.995 242.137 297.044 225.601 304.582 207.403C312.12 189.204 316 169.698 316 150C316 130.302 312.12 110.796 304.582 92.5976C297.044 74.3987 285.995 57.8628 272.066 43.934C258.137 30.0052 241.601 18.9563 223.402 11.4181Z" fill="black"/>
<rect x="95" y="403" width="110" height="32" rx="16" fill="black"/>
<rect x="107" y="444" width="85" height="32" rx="16" fill="black"/>
<path fill-rule="evenodd" clip-rule="evenodd" d="M150 300C110.218 300 72.0644 284.197 43.934 256.066C15.8035 227.936 8.37827e-06 189.783 0 150C-8.37814e-06 110.218 15.8035 72.0645 43.9339 43.934C72.0644 15.8036 110.217 1.84954e-05 150 0L150 86.5H88V109V109.5V119H150V150V163H88V173V196H150V300Z" fill="black"/>
</svg>
